<svg width="103" height="103" viewBox="0 0 103 103" fill="none" xmlns="http://www.w3.org/2000/svg">
<g filter="url(#filter0_d)">
<rect x="88" y="88" width="75" height="75" rx="36" transform="rotate(-180 88 88)" fill="#40444F"/>
</g>
<rect x="70" y="61" width="5" height="39" rx="2.5" transform="rotate(90 70 61)" fill="white"/>
<rect x="69.8599" y="33.0001" width="4.50121" height="38.8598" rx="2.2506" transform="rotate(90 69.8599 33.0001)" fill="white"/>
<rect x="70" y="65" width="5" height="32" rx="2.5" transform="rotate(180 70 65)" fill="white"/>
<rect x="36" y="65" width="5" height="32" rx="2.5" transform="rotate(-180 36 65)" fill="white"/>
<rect width="16.9183" height="6.60304" rx="3.30152" transform="matrix(-0.766544 -0.642192 0.643383 -0.765544 54.9686 58.3668)" fill="#FF0000"/>
<rect width="6.60485" height="34.1263" rx="3.30243" transform="matrix(-0.766544 -0.642192 0.643383 -0.765544 54.9686 58.3668)" fill="#FF0000"/>
<defs>
<filter id="filter0_d" x="0" y="-1.90735e-06" width="103" height="103" filterUnits="userSpaceOnUse" color-interpolation-filters="sRGB">
<feFlood flood-opacity="0" result="BackgroundImageFix"/>
<feColorMatrix in="SourceAlpha" type="matrix" values="0 0 0 0 0 0 0 0 0 0 0 0 0 0 0 0 0 0 127 0"/>
<feMorphology radius="1" operator="dilate" in="SourceAlpha" result="effect1_dropShadow"/>
<feOffset dx="1" dy="1"/>
<feGaussianBlur stdDeviation="6.5"/>
<feColorMatrix type="matrix" values="0 0 0 0 0 0 0 0 0 0 0 0 0 0 0 0 0 0 0.25 0"/>
<feBlend mode="normal" in2="BackgroundImageFix" result="effect1_dropShadow"/>
<feBlend mode="normal" in="SourceGraphic" in2="effect1_dropShadow" result="shape"/>
</filter>
</defs>
</svg>
