<svg id="e9RLEcnwUVI1" xmlns="http://www.w3.org/2000/svg" xmlns:xlink="http://www.w3.org/1999/xlink" viewBox="0 0 1920 1440" shape-rendering="geometricPrecision" text-rendering="geometricPrecision"><rect id="e9RLEcnwUVI2" width="1920" height="1440" rx="0" ry="0" fill="rgb(241,223,89)" stroke="none" stroke-width="0"/><line id="e9RLEcnwUVI3" x1="148.388696" y1="-133.232649" x2="-148.388696" y2="133.232649" transform="matrix(1.65041209108520 0 0 5.39556396722261 344.97488650000003 720.00000000000011)" fill="none" stroke="rgb(0,0,0)" stroke-width="3"/><line id="e9RLEcnwUVI4" x1="-96" y1="0" x2="96" y2="0" transform="matrix(1 0 0 1 279.02435400000002 1.13471980000000)" fill="none" stroke="rgb(63,87,135)" stroke-width="3"/><line id="e9RLEcnwUVI5" x1="-427.304487" y1="-718.865280" x2="427.304488" y2="718.865280" transform="matrix(1 0 0 1 706.32884149999995 720)" fill="none" stroke="rgb(63,87,135)" stroke-width="3"/><line id="e9RLEcnwUVI6" x1="-954.276039" y1="375.857875" x2="954.276039" y2="-375.857875" transform="matrix(1 0 0 1 954.27603899999997 376.99259489999997)" fill="none" stroke="rgb(63,87,135)" stroke-width="3"/><line id="e9RLEcnwUVI7" x1="-96" y1="0" x2="96" y2="0" transform="matrix(1 0 0 1 1543.07621399999994 1.13471980000000)" fill="none" stroke="rgb(63,87,135)" stroke-width="3"/><line id="e9RLEcnwUVI8" x1="516.612499" y1="-718.865280" x2="-516.612499" y2="718.865280" transform="matrix(1 0 0 1 1026.46371499999987 720)" fill="none" stroke="rgb(63,87,135)" stroke-width="3"/><line id="e9RLEcnwUVI9" x1="-954.276039" y1="-566.075398" x2="954.276039" y2="566.075399" transform="matrix(1 0 0 1 954.27603899999997 821.54894049999996)" fill="none" stroke="rgb(63,87,135)" stroke-width="3"/></svg>