<svg width="77" height="88" viewBox="0 0 77 88" fill="none" xmlns="http://www.w3.org/2000/svg">
<rect x="1.63879" y="11.6293" width="73" height="73" fill="#1F1F23" stroke="white" stroke-width="3"/>
<path d="M52.85 44.82L55.655 45.315C55.7283 45.315 55.8383 45.3333 55.985 45.37C56.1683 45.37 56.2967 45.2967 56.37 45.15C56.7367 44.6 57.0117 43.94 57.195 43.17C58.5517 38.88 59.78 35.8733 60.88 34.15C62.0167 32.4267 63.4283 31.565 65.115 31.565C65.9583 31.565 66.6917 31.8033 67.315 32.28C67.9383 32.7567 68.25 33.3617 68.25 34.095C68.25 35.855 67.6817 36.735 66.545 36.735C66.1783 36.735 65.995 36.625 65.995 36.405C66.2883 35.7817 66.435 34.9933 66.435 34.04C66.435 33.05 66.16 32.555 65.61 32.555C64.4733 32.555 63.1167 34.1317 61.54 37.285C61.2833 37.7983 60.77 39.1 60 41.19C59.2667 43.2433 58.9 44.38 58.9 44.6C58.9 44.9667 59.1383 45.15 59.615 45.15L66.6 44.985C66.71 44.985 66.765 45.0583 66.765 45.205C61.7783 46.9283 58.7167 47.9183 57.58 48.175C57.58 48.4317 56.9933 50.3017 55.82 53.785C53.2533 62.475 50.6317 68.745 47.955 72.595C45.2783 76.445 42.29 78.37 38.99 78.37C37.4133 78.37 35.965 77.82 34.645 76.72C33.325 75.62 32.665 74.1167 32.665 72.21C32.665 71.99 32.7383 71.88 32.885 71.88C32.995 71.88 33.105 72.0817 33.215 72.485C34.0217 75.2717 35.8183 76.665 38.605 76.665C42.5283 76.665 46.3783 72.045 50.155 62.805C50.815 61.155 51.6583 58.79 52.685 55.71C53.7483 52.63 54.5917 50.1917 55.215 48.395C53.455 47.9183 52.575 46.8917 52.575 45.315C52.575 44.985 52.6667 44.82 52.85 44.82Z" fill="#7692FF"/>
<path d="M19.1719 78H11.5156V20.7734H27.1406C30.1615 20.7734 32.9609 21.1641 35.5391 21.9453C38.1432 22.7005 40.3958 23.8203 42.2969 25.3047C44.224 26.7891 45.7344 28.638 46.8281 30.8516C47.9219 33.0391 48.4688 35.5781 48.4688 38.4688C48.4688 40.526 48.1953 42.4401 47.6484 44.2109C47.1016 45.9557 46.3333 47.5443 45.3438 48.9766C44.3802 50.4089 43.2474 51.6849 41.9453 52.8047C40.6432 53.8984 39.237 54.8229 37.7266 55.5781C36.2161 56.3333 34.6406 56.9062 33 57.2969C31.3594 57.6875 29.7188 57.8828 28.0781 57.8828C27.7656 57.8828 27.4271 57.8828 27.0625 57.8828C26.6979 57.8568 26.2552 57.8047 25.7344 57.7266L26.2812 51.8672C26.75 51.9453 27.1536 51.9974 27.4922 52.0234C27.8307 52.0234 28.1693 52.0234 28.5078 52.0234C30.1745 52.0234 31.737 51.776 33.1953 51.2812C34.6797 50.7604 35.9688 49.9792 37.0625 48.9375C38.1823 47.8958 39.0547 46.5938 39.6797 45.0312C40.3307 43.4427 40.6562 41.5677 40.6562 39.4062C40.6562 37.1927 40.3047 35.2917 39.6016 33.7031C38.9245 32.1146 37.9349 30.8125 36.6328 29.7969C35.3568 28.7812 33.7812 28.0391 31.9062 27.5703C30.0573 27.0755 27.974 26.8281 25.6562 26.8281H19.1719V78Z" fill="#7692FF"/>
</svg>
