<svg width="47" height="60" viewBox="0 0 47 60" fill="none" xmlns="http://www.w3.org/2000/svg">
<rect x="1.62933" y="5.62933" width="43" height="43" fill="#1F1F23" stroke="white" stroke-width="3"/>
<path d="M32.03 26.996L33.509 27.257C33.5477 27.257 33.6057 27.2667 33.683 27.286C33.7797 27.286 33.8473 27.2473 33.886 27.17C34.0793 26.88 34.2243 26.532 34.321 26.126C35.0363 23.864 35.684 22.2787 36.264 21.37C36.8633 20.4613 37.6077 20.007 38.497 20.007C38.9417 20.007 39.3283 20.1327 39.657 20.384C39.9857 20.6353 40.15 20.9543 40.15 21.341C40.15 22.269 39.8503 22.733 39.251 22.733C39.0577 22.733 38.961 22.675 38.961 22.559C39.1157 22.2303 39.193 21.8147 39.193 21.312C39.193 20.79 39.048 20.529 38.758 20.529C38.1587 20.529 37.4433 21.3603 36.612 23.023C36.4767 23.2937 36.206 23.98 35.8 25.082C35.4133 26.1647 35.22 26.764 35.22 26.88C35.22 27.0733 35.3457 27.17 35.597 27.17L39.28 27.083C39.338 27.083 39.367 27.1217 39.367 27.199C36.7377 28.1077 35.1233 28.6297 34.524 28.765C34.524 28.9003 34.2147 29.8863 33.596 31.723C32.2427 36.305 30.8603 39.611 29.449 41.641C28.0377 43.671 26.462 44.686 24.722 44.686C23.8907 44.686 23.127 44.396 22.431 43.816C21.735 43.236 21.387 42.4433 21.387 41.438C21.387 41.322 21.4257 41.264 21.503 41.264C21.561 41.264 21.619 41.3703 21.677 41.583C22.1023 43.0523 23.0497 43.787 24.519 43.787C26.5877 43.787 28.6177 41.351 30.609 36.479C30.957 35.609 31.4017 34.362 31.943 32.738C32.5037 31.114 32.9483 29.8283 33.277 28.881C32.349 28.6297 31.885 28.0883 31.885 27.257C31.885 27.083 31.9333 26.996 32.03 26.996Z" fill="#7692FF"/>
<path d="M11.8945 43H7.68359V11.5254H16.2773C17.9388 11.5254 19.4785 11.7402 20.8965 12.1699C22.3288 12.5853 23.5677 13.2012 24.6133 14.0176C25.6732 14.834 26.5039 15.8509 27.1055 17.0684C27.707 18.2715 28.0078 19.668 28.0078 21.2578C28.0078 22.3893 27.8574 23.4421 27.5566 24.416C27.2559 25.3757 26.8333 26.2493 26.2891 27.0371C25.7591 27.8249 25.1361 28.5267 24.4199 29.1426C23.7038 29.7441 22.9303 30.2526 22.0996 30.668C21.2689 31.0833 20.4023 31.3984 19.5 31.6133C18.5977 31.8281 17.6953 31.9355 16.793 31.9355C16.6211 31.9355 16.4349 31.9355 16.2344 31.9355C16.0339 31.9212 15.7904 31.8926 15.5039 31.8496L15.8047 28.627C16.0625 28.6699 16.2845 28.6986 16.4707 28.7129C16.6569 28.7129 16.8431 28.7129 17.0293 28.7129C17.946 28.7129 18.8053 28.5768 19.6074 28.3047C20.4238 28.0182 21.1328 27.5885 21.7344 27.0156C22.3503 26.4427 22.8301 25.7266 23.1738 24.8672C23.5319 23.9935 23.7109 22.9622 23.7109 21.7734C23.7109 20.556 23.5176 19.5104 23.1309 18.6367C22.7585 17.763 22.2142 17.0469 21.498 16.4883C20.7962 15.9297 19.9297 15.5215 18.8984 15.2637C17.8815 14.9915 16.7357 14.8555 15.4609 14.8555H11.8945V43Z" fill="#7692FF"/>
</svg>
