<svg width="47" height="66" viewBox="0 0 47 66" fill="none" xmlns="http://www.w3.org/2000/svg">
<rect x="1.62933" y="8.62933" width="43" height="43" rx="2.5" fill="#1F1F23" stroke="white" stroke-width="3"/>
<path d="M32.03 29.996L33.509 30.257C33.5477 30.257 33.6057 30.2667 33.683 30.286C33.7797 30.286 33.8473 30.2473 33.886 30.17C34.0793 29.88 34.2243 29.532 34.321 29.126C35.0363 26.864 35.684 25.2787 36.264 24.37C36.8633 23.4613 37.6077 23.007 38.497 23.007C38.9417 23.007 39.3283 23.1327 39.657 23.384C39.9857 23.6353 40.15 23.9543 40.15 24.341C40.15 25.269 39.8503 25.733 39.251 25.733C39.0577 25.733 38.961 25.675 38.961 25.559C39.1157 25.2303 39.193 24.8147 39.193 24.312C39.193 23.79 39.048 23.529 38.758 23.529C38.1587 23.529 37.4433 24.3603 36.612 26.023C36.4767 26.2937 36.206 26.98 35.8 28.082C35.4133 29.1647 35.22 29.764 35.22 29.88C35.22 30.0733 35.3457 30.17 35.597 30.17L39.28 30.083C39.338 30.083 39.367 30.1217 39.367 30.199C36.7377 31.1077 35.1233 31.6297 34.524 31.765C34.524 31.9003 34.2147 32.8863 33.596 34.723C32.2427 39.305 30.8603 42.611 29.449 44.641C28.0377 46.671 26.462 47.686 24.722 47.686C23.8907 47.686 23.127 47.396 22.431 46.816C21.735 46.236 21.387 45.4433 21.387 44.438C21.387 44.322 21.4257 44.264 21.503 44.264C21.561 44.264 21.619 44.3703 21.677 44.583C22.1023 46.0523 23.0497 46.787 24.519 46.787C26.5877 46.787 28.6177 44.351 30.609 39.479C30.957 38.609 31.4017 37.362 31.943 35.738C32.5037 34.114 32.9483 32.8283 33.277 31.881C32.349 31.6297 31.885 31.0883 31.885 30.257C31.885 30.083 31.9333 29.996 32.03 29.996Z" fill="#7692FF"/>
<path d="M11.7031 47H7.10938V12.6641H16.4844C18.2969 12.6641 19.9766 12.8984 21.5234 13.3672C23.0859 13.8203 24.4375 14.4922 25.5781 15.3828C26.7344 16.2734 27.6406 17.3828 28.2969 18.7109C28.9531 20.0234 29.2812 21.5469 29.2812 23.2812C29.2812 24.5156 29.1172 25.6641 28.7891 26.7266C28.4609 27.7734 28 28.7266 27.4062 29.5859C26.8281 30.4453 26.1484 31.2109 25.3672 31.8828C24.5859 32.5391 23.7422 33.0938 22.8359 33.5469C21.9297 34 20.9844 34.3438 20 34.5781C19.0156 34.8125 18.0312 34.9297 17.0469 34.9297C16.8594 34.9297 16.6562 34.9297 16.4375 34.9297C16.2188 34.9141 15.9531 34.8828 15.6406 34.8359L15.9688 31.3203C16.25 31.3672 16.4922 31.3984 16.6953 31.4141C16.8984 31.4141 17.1016 31.4141 17.3047 31.4141C18.3047 31.4141 19.2422 31.2656 20.1172 30.9688C21.0078 30.6562 21.7812 30.1875 22.4375 29.5625C23.1094 28.9375 23.6328 28.1562 24.0078 27.2188C24.3984 26.2656 24.5938 25.1406 24.5938 23.8438C24.5938 22.5156 24.3828 21.375 23.9609 20.4219C23.5547 19.4688 22.9609 18.6875 22.1797 18.0781C21.4141 17.4688 20.4688 17.0234 19.3438 16.7422C18.2344 16.4453 16.9844 16.2969 15.5938 16.2969H11.7031V47Z" fill="#7692FF"/>
</svg>
